# xmcd
#
# Track frame offsets: 
#        150
#        18842
#        39345
#        56530
#        93150
#        119527
#        146540
#        171590
#        193175
#        203917
#        228995
#
# Disc length: 3239 seconds
#
# Revision: 0
# Processed by: cddbd v1.5.2PL0 Copyright (c) Steve Scherf et al.
# Submitted via: ExactAudioCopy v0.99pb4
#
DISCID=940ca50b
DTITLE=Various Artist - Фестиваль "Рок Экзистенцiя"
DYEAR=1997
DGENRE=Folk/Rock
TTITLE0=Стоп-Степ - Дережабель
TTITLE1=Мертвий Пiвень - Поцiлунок
TTITLE2=So... - Зелена казка
TTITLE3=Всяк Випадок - Я це
TTITLE4=Армада - Адреналiн
TTITLE5=Брати Блюзу -  Iнтерлюдiя
TTITLE6=Плач Еремii - Срiбне поле
TTITLE7=Океан Эльзи - Ти забула давно
TTITLE8=Актус - Червонi вершники
TTITLE9=Кому Вниз - Навою
TTITLE10=ВВ - Гармонiя
EXTD=
EXTT0=
EXTT1=
EXTT2=
EXTT3=
EXTT4=
EXTT5=
EXTT6=
EXTT7=
EXTT8=
EXTT9=
EXTT10=
PLAYORDER=
